<svg width="23" height="21" viewBox="0 0 23 21" fill="none" xmlns="http://www.w3.org/2000/svg">
<path d="M14.9205 4.78952C14.2253 4.78909 13.5332 4.88236 12.8628 5.06678C12.5982 4.63504 12.2768 4.24083 11.9071 3.89475L12.873 2.51655C12.9342 2.42912 12.9776 2.33049 13.0007 2.22629C13.0238 2.12209 13.0262 2.01437 13.0076 1.90926C12.9891 1.80415 12.9501 1.70372 12.8927 1.61371C12.8354 1.52369 12.7609 1.44585 12.6734 1.38463C12.586 1.32341 12.4874 1.28002 12.3832 1.25691C12.279 1.23381 12.1712 1.23146 12.0661 1.24999C11.961 1.26852 11.8606 1.30758 11.7706 1.36492C11.6806 1.42226 11.6027 1.49678 11.5415 1.5842L10.5757 2.96139C9.7814 2.56036 8.90401 2.35162 8.01425 2.35202C7.95534 2.35202 7.89644 2.35202 7.83753 2.35202L7.54401 0.697563C7.52861 0.58976 7.49169 0.486154 7.43545 0.392902C7.37921 0.299649 7.3048 0.218653 7.21664 0.154727C7.12848 0.0908013 7.02837 0.0452495 6.92226 0.0207791C6.81615 -0.00369125 6.7062 -0.00658104 6.59895 0.0122816C6.4917 0.0311443 6.38933 0.0713744 6.29793 0.130581C6.20654 0.189788 6.12798 0.266764 6.06692 0.356933C6.00586 0.447103 5.96355 0.548626 5.9425 0.655471C5.92146 0.762316 5.9221 0.872301 5.9444 0.978891L6.2369 2.63842C5.33579 2.93646 4.52342 3.45489 3.87354 4.14662L2.49026 3.17873C2.40291 3.11601 2.30397 3.07125 2.19918 3.04706C2.09439 3.02286 1.98585 3.01971 1.87983 3.03778C1.77382 3.05586 1.67245 3.0948 1.5816 3.15235C1.49075 3.20989 1.41223 3.2849 1.35059 3.37303C1.28895 3.46115 1.24542 3.56064 1.22252 3.66571C1.19961 3.77079 1.1978 3.87937 1.21718 3.98515C1.23656 4.09093 1.27675 4.19181 1.33542 4.28195C1.39408 4.37208 1.47006 4.44967 1.55893 4.51022L2.93612 5.47709C2.53367 6.27119 2.32486 7.14926 2.32675 8.03952C2.32675 8.09741 2.32675 8.15631 2.32675 8.2142L0.672294 8.5067C0.472039 8.54178 0.292213 8.65066 0.168313 8.81185C0.0444134 8.97304 -0.0145564 9.17482 0.00304471 9.37736C0.0206458 9.5799 0.113539 9.76848 0.263386 9.90588C0.413234 10.0433 0.609146 10.1195 0.81245 10.1195C0.859767 10.1195 0.906994 10.1154 0.953622 10.1073L2.61112 9.81483C2.75675 10.2582 2.95666 10.6819 3.20628 11.0762C2.42911 11.7981 1.88732 12.7373 1.65146 13.7714C1.4156 14.8055 1.49659 15.8867 1.8839 16.8742C2.27122 17.8617 2.94689 18.7096 3.82294 19.3076C4.69898 19.9056 5.7348 20.226 6.7955 20.227H14.9205C16.9676 20.227 18.9309 19.4138 20.3785 17.9662C21.826 16.5187 22.6392 14.5554 22.6392 12.5083C22.6392 10.4611 21.826 8.49783 20.3785 7.05029C18.9309 5.60274 16.9676 4.78952 14.9205 4.78952ZM3.95175 8.03952C3.95223 7.17913 4.22587 6.34112 4.73321 5.64625C5.24056 4.95137 5.95542 4.43551 6.77478 4.17301C7.59414 3.91051 8.47568 3.91492 9.29237 4.18561C10.1091 4.4563 10.8187 4.97928 11.3191 5.6792C9.66168 6.55142 8.37647 7.99467 7.70144 9.7417C6.63334 9.55733 5.5344 9.70516 4.553 10.1652C4.16008 9.52579 3.95197 8.79002 3.95175 8.03952ZM14.9205 18.602H6.7955C6.29543 18.6011 5.80086 18.4976 5.34238 18.2979C4.8839 18.0983 4.47125 17.8067 4.12995 17.4412C3.78865 17.0757 3.52595 16.6441 3.3581 16.173C3.19024 15.702 3.12081 15.2015 3.15407 14.7025C3.18734 14.2036 3.32261 13.7167 3.55152 13.2721C3.78042 12.8275 4.0981 12.4346 4.4849 12.1177C4.87171 11.8007 5.31942 11.5665 5.80035 11.4295C6.28127 11.2924 6.7852 11.2555 7.28097 11.321C7.24339 11.5617 7.21698 11.8075 7.20276 12.0553C7.19037 12.2708 7.26409 12.4824 7.4077 12.6435C7.55132 12.8046 7.75306 12.9021 7.96854 12.9145C8.18403 12.9269 8.39562 12.8532 8.55675 12.7096C8.71789 12.566 8.81537 12.3642 8.82776 12.1487C8.85056 11.7435 8.91453 11.3416 9.0187 10.9493C9.0187 10.933 9.02784 10.9168 9.03089 10.9005C9.32952 9.80309 9.92903 8.811 10.7617 8.03628C11.5944 7.26157 12.6271 6.73508 13.7432 6.51627C14.8593 6.29747 16.0143 6.39506 17.0779 6.79802C18.1415 7.20099 19.0712 7.89328 19.7621 8.79673C20.453 9.70017 20.8775 10.7788 20.9878 11.9108C21.0981 13.0428 20.8897 14.183 20.3861 15.2028C19.8826 16.2226 19.1039 17.0813 18.1381 17.682C17.1723 18.2826 16.0578 18.6013 14.9205 18.602Z" fill="#525252"/>
</svg>
